<mxfile host="app.diagrams.net" agent="Mozilla/5.0 (Windows NT 10.0; Win64; x64) AppleWebKit/537.36 (KHTML, like Gecko) Chrome/134.0.0.0 Safari/537.36" version="26.2.2">
  <diagram name="Page-1" id="wF48a3113gRwSDjvm_2B">
    <mxGraphModel dx="509" dy="304" grid="1" gridSize="10" guides="1" tooltips="1" connect="1" arrows="1" fold="1" page="1" pageScale="1" pageWidth="850" pageHeight="1100" math="0" shadow="0">
      <root>
        <mxCell id="0" />
        <mxCell id="1" parent="0" />
        <mxCell id="_BiZIFQ3oofYg4TzaWQk-7" style="rounded=0;orthogonalLoop=1;jettySize=auto;html=1;entryX=0;entryY=0.5;entryDx=0;entryDy=0;" edge="1" parent="1" source="_BiZIFQ3oofYg4TzaWQk-1" target="_BiZIFQ3oofYg4TzaWQk-2">
          <mxGeometry relative="1" as="geometry" />
        </mxCell>
        <mxCell id="_BiZIFQ3oofYg4TzaWQk-1" value="" style="ellipse;fillColor=strokeColor;html=1;" vertex="1" parent="1">
          <mxGeometry x="130" y="180" width="30" height="30" as="geometry" />
        </mxCell>
        <mxCell id="_BiZIFQ3oofYg4TzaWQk-8" style="edgeStyle=orthogonalEdgeStyle;rounded=0;orthogonalLoop=1;jettySize=auto;html=1;entryX=0;entryY=0.5;entryDx=0;entryDy=0;" edge="1" parent="1" source="_BiZIFQ3oofYg4TzaWQk-2" target="_BiZIFQ3oofYg4TzaWQk-3">
          <mxGeometry relative="1" as="geometry" />
        </mxCell>
        <mxCell id="_BiZIFQ3oofYg4TzaWQk-13" style="edgeStyle=orthogonalEdgeStyle;rounded=0;orthogonalLoop=1;jettySize=auto;html=1;entryX=0;entryY=0.75;entryDx=0;entryDy=0;" edge="1" parent="1" source="_BiZIFQ3oofYg4TzaWQk-2" target="_BiZIFQ3oofYg4TzaWQk-12">
          <mxGeometry relative="1" as="geometry">
            <Array as="points">
              <mxPoint x="290" y="290" />
            </Array>
          </mxGeometry>
        </mxCell>
        <mxCell id="_BiZIFQ3oofYg4TzaWQk-2" value="Created" style="html=1;align=center;verticalAlign=top;rounded=1;absoluteArcSize=1;arcSize=10;dashed=0;whiteSpace=wrap;" vertex="1" parent="1">
          <mxGeometry x="220" y="180" width="140" height="40" as="geometry" />
        </mxCell>
        <mxCell id="_BiZIFQ3oofYg4TzaWQk-9" style="edgeStyle=orthogonalEdgeStyle;rounded=0;orthogonalLoop=1;jettySize=auto;html=1;entryX=0;entryY=0.5;entryDx=0;entryDy=0;" edge="1" parent="1" source="_BiZIFQ3oofYg4TzaWQk-3" target="_BiZIFQ3oofYg4TzaWQk-4">
          <mxGeometry relative="1" as="geometry" />
        </mxCell>
        <mxCell id="_BiZIFQ3oofYg4TzaWQk-14" style="edgeStyle=orthogonalEdgeStyle;rounded=0;orthogonalLoop=1;jettySize=auto;html=1;entryX=0;entryY=0.5;entryDx=0;entryDy=0;" edge="1" parent="1" source="_BiZIFQ3oofYg4TzaWQk-3" target="_BiZIFQ3oofYg4TzaWQk-12">
          <mxGeometry relative="1" as="geometry">
            <Array as="points">
              <mxPoint x="460" y="280" />
            </Array>
          </mxGeometry>
        </mxCell>
        <mxCell id="_BiZIFQ3oofYg4TzaWQk-3" value="Started" style="html=1;align=center;verticalAlign=top;rounded=1;absoluteArcSize=1;arcSize=10;dashed=0;whiteSpace=wrap;" vertex="1" parent="1">
          <mxGeometry x="390" y="180" width="140" height="40" as="geometry" />
        </mxCell>
        <mxCell id="_BiZIFQ3oofYg4TzaWQk-10" style="edgeStyle=orthogonalEdgeStyle;rounded=0;orthogonalLoop=1;jettySize=auto;html=1;entryX=0;entryY=0.5;entryDx=0;entryDy=0;" edge="1" parent="1" source="_BiZIFQ3oofYg4TzaWQk-4" target="_BiZIFQ3oofYg4TzaWQk-5">
          <mxGeometry relative="1" as="geometry" />
        </mxCell>
        <mxCell id="_BiZIFQ3oofYg4TzaWQk-15" style="edgeStyle=orthogonalEdgeStyle;rounded=0;orthogonalLoop=1;jettySize=auto;html=1;entryX=0;entryY=0.25;entryDx=0;entryDy=0;" edge="1" parent="1" source="_BiZIFQ3oofYg4TzaWQk-4" target="_BiZIFQ3oofYg4TzaWQk-12">
          <mxGeometry relative="1" as="geometry">
            <Array as="points">
              <mxPoint x="640" y="270" />
            </Array>
          </mxGeometry>
        </mxCell>
        <mxCell id="_BiZIFQ3oofYg4TzaWQk-4" value="Finished" style="html=1;align=center;verticalAlign=top;rounded=1;absoluteArcSize=1;arcSize=10;dashed=0;whiteSpace=wrap;" vertex="1" parent="1">
          <mxGeometry x="560" y="180" width="140" height="40" as="geometry" />
        </mxCell>
        <mxCell id="_BiZIFQ3oofYg4TzaWQk-5" value="Finalized" style="html=1;align=center;verticalAlign=top;rounded=1;absoluteArcSize=1;arcSize=10;dashed=0;whiteSpace=wrap;" vertex="1" parent="1">
          <mxGeometry x="730" y="180" width="140" height="40" as="geometry" />
        </mxCell>
        <mxCell id="_BiZIFQ3oofYg4TzaWQk-6" value="" style="ellipse;html=1;shape=endState;fillColor=strokeColor;" vertex="1" parent="1">
          <mxGeometry x="910" y="180" width="30" height="30" as="geometry" />
        </mxCell>
        <mxCell id="_BiZIFQ3oofYg4TzaWQk-11" style="edgeStyle=orthogonalEdgeStyle;rounded=0;orthogonalLoop=1;jettySize=auto;html=1;entryX=0.042;entryY=0.687;entryDx=0;entryDy=0;entryPerimeter=0;" edge="1" parent="1" source="_BiZIFQ3oofYg4TzaWQk-5" target="_BiZIFQ3oofYg4TzaWQk-6">
          <mxGeometry relative="1" as="geometry" />
        </mxCell>
        <mxCell id="_BiZIFQ3oofYg4TzaWQk-12" value="Canceled" style="html=1;align=center;verticalAlign=top;rounded=1;absoluteArcSize=1;arcSize=10;dashed=0;whiteSpace=wrap;" vertex="1" parent="1">
          <mxGeometry x="730" y="260" width="140" height="40" as="geometry" />
        </mxCell>
        <mxCell id="_BiZIFQ3oofYg4TzaWQk-16" value="Reported" style="html=1;align=center;verticalAlign=top;rounded=1;absoluteArcSize=1;arcSize=10;dashed=0;whiteSpace=wrap;" vertex="1" parent="1">
          <mxGeometry x="650" y="90" width="140" height="40" as="geometry" />
        </mxCell>
        <mxCell id="_BiZIFQ3oofYg4TzaWQk-17" style="edgeStyle=orthogonalEdgeStyle;rounded=0;orthogonalLoop=1;jettySize=auto;html=1;exitX=0.75;exitY=0;exitDx=0;exitDy=0;entryX=0.112;entryY=0.996;entryDx=0;entryDy=0;entryPerimeter=0;" edge="1" parent="1" source="_BiZIFQ3oofYg4TzaWQk-4" target="_BiZIFQ3oofYg4TzaWQk-16">
          <mxGeometry relative="1" as="geometry" />
        </mxCell>
        <mxCell id="_BiZIFQ3oofYg4TzaWQk-18" style="edgeStyle=orthogonalEdgeStyle;rounded=0;orthogonalLoop=1;jettySize=auto;html=1;exitX=0.75;exitY=1;exitDx=0;exitDy=0;" edge="1" parent="1" source="_BiZIFQ3oofYg4TzaWQk-16">
          <mxGeometry relative="1" as="geometry">
            <mxPoint x="754" y="180" as="targetPoint" />
          </mxGeometry>
        </mxCell>
      </root>
    </mxGraphModel>
  </diagram>
</mxfile>
